#!OML:ASF F:\VICON\USERDATA\INSTALL\Justin_Nancy\Justin_Nancy.ASF
:FULLY-SPECIFIED
:DEGREES

117
root 0.430384 17.3967 1.12534 -1.92412 2.94942 -1.22985
lowerback 5.73479 -2.05756 -2.42341
upperback 0.624876 -2.79318 3.96157
thorax -2.25408 -1.3625 5.68305
lowerneck -15.5878 -2.48363 -9.2862
upperneck 22.9191 -1.9168 3.52446
head 10.0076 -1.29279 2.54441
rclavicle 3.74212e-014 -3.97569e-015
rhumerus -45.6177 -24.3367 -66.3033
rradius 20.0783
rwrist 19.8091
rhand -13.9806 12.6434
rfingers 7.12502
rthumb 12.1478 -16.9839
lclavicle 3.74212e-014 -3.97569e-015
lhumerus -27.2837 2.00534 83.363
lradius 42.8613
lwrist -0.142347
lhand -14.7872 28.4282
lfingers 7.12502
lthumb 11.3699 58.1
rfemur -19.0395 8.41173 25.4568
rtibia 30.1918
rfoot -3.70293 -5.53424
rtoes 3.38775
lfemur -5.10882 -3.7854 -18.0099
ltibia 62.3057
lfoot 34.7181 -15.2804
ltoes 2.4243
118
root 0.419783 17.4231 1.36856 -1.82118 2.77544 -1.51027
lowerback 5.5289 -1.93433 -2.12656
upperback 0.588217 -2.60881 3.94759
thorax -2.21206 -1.27294 5.47814
lowerneck -15.3576 -2.51209 -9.2855
upperneck 22.9006 -2.00913 3.63642
head 9.96425 -1.32376 2.57241
rclavicle 1.19768e-014 1.03368e-014
rhumerus -45.3372 -24.4985 -66.374
rradius 19.9875
rwrist 20.5878
rhand -13.5854 12.642
rfingers 7.12502
rthumb 12.5289 -16.9624
lclavicle 1.19768e-014 1.03368e-014
lhumerus -27.631 1.9866 83.4158
lradius 42.5802
lwrist -0.296147
lhand -15.2488 29.0562
lfingers 7.12502
lthumb 10.9248 58.752
rfemur -18.03 8.8794 26.0091
rtibia 29.8889
rfoot -4.30343 -6.06192
rtoes 4.10664
lfemur -7.20587 -3.45218 -17.5448
ltibia 64.0543
lfoot 31.2587 -16.0287
ltoes 1.16437
119
root 0.412251 17.4439 1.61523 -1.841 2.67966 -1.62312
lowerback 5.474 -1.82601 -1.9262
upperback 0.545261 -2.45279 3.86182
thorax -2.2551 -1.19491 5.26245
lowerneck -15.3525 -2.57861 -9.29195
upperneck 23.1285 -2.13674 3.76607
head 10.0551 -1.37298 2.60588
rclavicle -1.6027e-014 4.77083e-015
rhumerus -44.9751 -24.2167 -66.8505
rradius 20.0489
rwrist 20.4412
rhand -13.4522 12.6401
rfingers 7.12502
rthumb 12.6573 -16.9564
lclavicle -1.6027e-014 4.77083e-015
lhumerus -28.0177 1.9496 83.5069
lradius 42.2092
lwrist -0.511725
lhand -16.116 30.4172
lfingers 7.12502
lthumb 10.0882 60.1554
rfemur -16.7933 9.11097 26.3912
rtibia 29.4885
rfoot -4.9071 -6.40825
rtoes 4.77331
lfemur -9.00865 -3.16805 -17.312
ltibia 65.5931
lfoot 27.4877 -16.6876
ltoes 0.91648
120
root 0.407291 17.4724 1.8724 -2.0173 2.66031 -1.62689
lowerback 5.41973 -1.79402 -1.87423
upperback 0.558957 -2.40901 3.78473
thorax -2.22062 -1.17455 5.14624
lowerneck -15.1218 -2.61778 -9.37472
upperneck 23.2572 -2.21858 3.85452
head 10.0655 -1.4125 2.64297
rclavicle 2.63638e-014 -3.26007e-014
rhumerus -44.5032 -23.8769 -67.3267
rradius 20.0656
rwrist 20.4825
rhand -13.6229 12.7504
rfingers 7.12502
rthumb 12.4927 -16.8562
lclavicle 2.63638e-014 -3.26007e-014
lhumerus -28.4348 2.09742 83.5674
lradius 41.7222
lwrist -0.662835
lhand -16.5079 30.6184
lfingers 7.12502
lthumb 9.71014 60.3746
rfemur -15.3693 9.13844 26.6611
rtibia 29.098
rfoot -5.5808 -6.56154
rtoes 5.05532
lfemur -10.5336 -3.00062 -17.2762
ltibia 66.8753
lfoot 23.2401 -16.6207
ltoes 3.73449
121
root 0.403409 17.5019 2.12917 -2.1857 2.82806 -1.68201
lowerback 5.30222 -1.8226 -1.79497
upperback 0.568662 -2.44385 3.73481
thorax -2.14677 -1.19442 5.04559
lowerneck -14.834 -2.63268 -9.50689
upperneck 23.377 -2.26441 3.9614
head 10.0602 -1.43806 2.69993
rclavicle 4.47266e-015 -1.59028e-014
rhumerus -44.1321 -23.557 -67.6985
rradius 20.1469
rwrist 20.776
rhand -13.9872 12.9877
rfingers 7.12502
rthumb 12.1414 -16.64
lclavicle 4.47266e-015 -1.59028e-014
lhumerus -28.8873 2.38786 83.5962
lradius 41.0271
lwrist -1.10941
lhand -16.5422 28.1323
lfingers 7.12502
lthumb 9.67706 57.89
rfemur -13.9989 9.01397 26.941
rtibia 28.6783
rfoot -6.28186 -6.82259
rtoes 4.73706
lfemur -12.062 -3.02719 -17.2239
ltibia 67.9736
lfoot 19.0061 -16.3195
ltoes 3.46132
